<?xml version="1.0" encoding="UTF-8" standalone="no"?>
<!-- Created with Inkscape (http://www.inkscape.org/) -->

<svg
   width="150"
   height="93.558044"
   viewBox="0 0 39.687497 24.753898"
   version="1.1"
   id="svg5"
   xml:space="preserve"
   sodipodi:docname="ace.svg"
   inkscape:version="1.2.2 (732a01da63, 2022-12-09)"
   xmlns:inkscape="http://www.inkscape.org/namespaces/inkscape"
   xmlns:sodipodi="http://sodipodi.sourceforge.net/DTD/sodipodi-0.dtd"
   xmlns:xlink="http://www.w3.org/1999/xlink"
   xmlns="http://www.w3.org/2000/svg"
   xmlns:svg="http://www.w3.org/2000/svg"><sodipodi:namedview
     id="namedview1428"
     pagecolor="#505050"
     bordercolor="#eeeeee"
     borderopacity="1"
     inkscape:showpageshadow="0"
     inkscape:pageopacity="0"
     inkscape:pagecheckerboard="0"
     inkscape:deskcolor="#505050"
     showgrid="false"
     inkscape:zoom="4.8459783"
     inkscape:cx="54.065451"
     inkscape:cy="52.20824"
     inkscape:window-width="1920"
     inkscape:window-height="966"
     inkscape:window-x="-12"
     inkscape:window-y="-12"
     inkscape:window-maximized="1"
     inkscape:current-layer="svg5" /><defs
     id="defs2"><color-profile
       name="Agfa-:-Swop-Standard"
       xlink:href="file:///WINDOWS/system32/spool/drivers/color/RSWOP.icm"
       id="color-profile3284" /></defs><g
     id="layer1"
     transform="matrix(0.21008401,0,0,0.21008401,125.41011,74.031114)"
     style="fill:#000000"><path
       style="fill:#000000;stroke-width:0.264583"
       d="m -506.2001,-234.91946 c -1.04266,-0.55926 -3.50675,-1.64078 -4.23271,-1.85779 -0.36347,-0.10866 -1.85175,-0.75869 -3.3073,-1.44453 -1.45554,-0.68584 -3.39058,-1.53105 -4.30009,-1.87826 -0.9095,-0.3472 -1.65364,-0.72118 -1.65364,-0.83106 0,-0.10988 -0.29063,-0.19978 -0.64585,-0.19978 -0.35521,0 -0.71127,-0.10587 -0.79125,-0.23527 -0.08,-0.1294 -0.46963,-0.31665 -0.86592,-0.41611 -0.39628,-0.0995 -1.4392,-0.51453 -2.3176,-0.92238 -1.54014,-0.71509 -2.22985,-1.01943 -4.50751,-1.98897 -0.58208,-0.24778 -1.26507,-0.55956 -1.51776,-0.69285 -0.25269,-0.13328 -0.63964,-0.24234 -0.8599,-0.24234 -0.22025,0 -0.40046,-0.09 -0.40046,-0.19999 0,-0.19775 -0.71136,-0.55487 -2.24499,-1.12704 -0.43438,-0.16205 -1.20828,-0.48133 -1.71979,-0.70951 -1.37374,-0.6128 -3.22002,-1.41322 -3.97272,-1.72232 -0.36381,-0.1494 -0.8682,-0.3768 -1.12089,-0.50534 -0.25269,-0.12854 -0.63964,-0.23371 -0.8599,-0.23371 -0.22025,0 -0.40046,-0.11907 -0.40046,-0.26459 0,-0.14552 -0.17498,-0.26458 -0.38883,-0.26458 -0.21385,0 -0.7794,-0.21847 -1.25677,-0.4855 -0.47737,-0.26702 -1.2103,-0.57069 -1.62873,-0.67482 -0.41843,-0.10413 -1.74137,-0.65957 -2.93986,-1.2343 -1.1985,-0.57473 -2.25643,-1.04496 -2.35096,-1.04496 -0.18714,0 -1.61434,-0.62652 -4.59467,-2.01698 -1.05326,-0.49139 -2.07244,-0.89344 -2.26484,-0.89344 -0.1924,0 -1.19569,-0.41672 -2.22955,-0.92604 -1.03385,-0.50932 -1.96734,-0.92604 -2.07442,-0.92604 -0.10707,0 -0.86138,-0.31014 -1.67625,-0.68919 -0.81487,-0.37905 -1.71971,-0.78744 -2.01075,-0.90752 -1.07117,-0.44196 -4.24726,-1.87742 -4.69276,-2.12092 -0.25269,-0.13812 -0.63964,-0.25112 -0.8599,-0.25112 -0.22025,0 -0.40046,-0.091 -0.40046,-0.20217 0,-0.20586 -1.92493,-1.12075 -2.35807,-1.12075 -0.13077,0 -0.6955,-0.22405 -1.25495,-0.49789 -1.64381,-0.80461 -3.3145,-1.53717 -4.58907,-2.01221 -1.48386,-0.55305 -2.74577,-1.09637 -4.0599,-1.74801 -0.55945,-0.27741 -1.15476,-0.50489 -1.32291,-0.5055 -0.16815,-5.3e-4 -0.89145,-0.29826 -1.60734,-0.66146 -0.71589,-0.36319 -1.47142,-0.66035 -1.67897,-0.66035 -0.20755,0 -0.69338,-0.16821 -1.07964,-0.37379 -1.03803,-0.55252 -2.98951,-1.38303 -3.74499,-1.59381 -1.55924,-0.43502 -2.11666,-0.76145 -2.11666,-1.2395 0,-0.6008 0.71558,-0.65466 1.49013,-0.11215 0.88119,0.61721 2.75122,1.19319 4.46299,1.37464 0.87313,0.0925 2.06375,0.37526 2.64583,0.62825 0.58209,0.25298 1.47506,0.60514 1.98438,0.78258 1.14173,0.39775 2.10404,0.78639 2.70839,1.09382 0.25269,0.12854 0.63964,0.23371 0.85989,0.23371 0.22026,0 0.40047,0.0908 0.40047,0.20175 0,0.11095 0.80367,0.43126 1.78594,0.71179 0.98226,0.28053 2.20265,0.71488 2.71198,0.96524 1.04855,0.5154 3.32018,1.36884 4.89479,1.83896 0.58208,0.17378 1.26507,0.42042 1.51776,0.54808 0.25269,0.12765 0.63964,0.2321 0.8599,0.2321 0.22025,0 0.40046,0.11906 0.40046,0.26458 0,0.14552 0.28774,0.26459 0.63941,0.26459 0.35168,0 0.6791,0.0895 0.72761,0.19892 0.0485,0.10941 1.10022,0.537 2.33715,0.9502 1.23693,0.4132 2.84427,1.0212 3.57187,1.35112 0.72761,0.32992 1.91823,0.81301 2.64584,1.07352 0.7276,0.26052 1.63895,0.69409 2.02522,0.9635 0.38626,0.2694 0.83436,0.48982 0.99577,0.48982 0.16142,0 0.50022,0.10747 0.75291,0.23883 0.25269,0.13136 1.65006,0.57342 3.10526,0.98238 1.45521,0.40895 3.12209,0.99599 3.70417,1.30453 0.58208,0.30855 1.77271,0.77812 2.64583,1.0435 0.87313,0.26537 1.70061,0.58289 1.83886,0.70559 0.13824,0.1227 0.45441,0.22309 0.7026,0.22309 0.24818,0 0.90898,0.23118 1.46844,0.51373 0.55945,0.28256 2.0873,0.88237 3.39522,1.33293 1.30791,0.45055 2.49258,0.93374 2.6326,1.07376 0.14002,0.14002 0.45528,0.25458 0.70058,0.25458 0.2453,0 0.78704,0.17786 1.20386,0.39524 0.41681,0.21739 0.96782,0.39598 1.22446,0.39688 0.25663,7.9e-4 0.67335,0.1068 0.92604,0.23534 0.25269,0.12854 0.75708,0.35074 1.12089,0.49377 0.3638,0.14302 0.95911,0.38698 1.32291,0.54211 0.3638,0.15513 1.97115,0.77931 3.57188,1.38707 1.60073,0.60776 3.2676,1.25996 3.70416,1.44934 0.43657,0.18938 1.31553,0.48293 1.95325,0.65233 0.63773,0.1694 1.3521,0.40955 1.5875,0.53367 1.0066,0.53072 5.94558,2.38091 6.3557,2.38091 0.24682,0 0.59164,0.14288 0.76626,0.3175 0.17463,0.17463 0.3175,0.22743 0.3175,0.11733 0,-0.11009 0.32742,-0.0293 0.72761,0.17944 0.95001,0.49564 1.75756,0.82961 3.37343,1.39512 0.72761,0.25464 1.45865,0.56525 1.62455,0.69025 0.18221,0.13729 0.65359,0.022 1.19062,-0.2911 0.48895,-0.28511 1.42478,-0.71686 2.07962,-0.95945 0.65485,-0.24259 1.66688,-0.65914 2.24896,-0.92566 0.58209,-0.26652 1.71318,-0.71919 2.51354,-1.00593 0.80037,-0.28675 2.22912,-0.88613 3.175,-1.33197 1.98781,-0.93694 3.89868,-1.61573 4.56407,-1.62126 0.25466,-0.002 0.46302,-0.12291 0.46302,-0.26843 0,-0.14552 0.21431,-0.26459 0.47625,-0.26459 0.26194,0 0.58936,-0.10102 0.7276,-0.22449 0.13825,-0.12347 1.56104,-0.74089 3.16177,-1.37203 1.60074,-0.63115 3.27567,-1.34934 3.72208,-1.59597 0.4464,-0.24664 1.2164,-0.53733 1.7111,-0.64599 0.49471,-0.10865 1.08196,-0.292 1.30502,-0.40743 1.37274,-0.71038 3.99809,-1.84079 4.2915,-1.84781 0.19107,-0.005 1.05874,-0.36175 1.92816,-0.79375 0.86942,-0.43199 1.73424,-0.78544 1.92182,-0.78544 0.18758,0 0.60733,-0.13766 0.93278,-0.3059 1.10551,-0.57149 1.40195,-0.68496 2.31151,-0.88473 0.88096,-0.19349 1.55952,-0.49832 2.38125,-1.06972 0.21828,-0.15179 0.87313,-0.43211 1.45521,-0.62293 0.58208,-0.19083 1.65365,-0.61824 2.38125,-0.94981 3.05949,-1.39419 3.81381,-1.70368 5.17845,-2.12458 0.78987,-0.24362 1.97191,-0.71289 2.62676,-1.04282 0.65484,-0.32992 2.14312,-0.93792 3.30729,-1.3511 1.16417,-0.41319 2.15635,-0.84624 2.20486,-0.96233 0.0485,-0.1161 0.35212,-0.21108 0.67469,-0.21108 0.32257,0 0.6996,-0.10798 0.83785,-0.23995 0.13824,-0.13197 1.68222,-0.71714 3.43106,-1.30039 1.74884,-0.58324 4.36821,-1.62089 5.82083,-2.30589 1.45262,-0.68499 2.90902,-1.34997 3.23644,-1.47773 1.19093,-0.4647 1.80637,-0.7163 2.84427,-1.16275 3.64568,-1.56818 4.3353,-1.85923 5.95312,-2.5125 0.80037,-0.32318 1.93146,-0.80466 2.51355,-1.06995 2.48814,-1.13401 3.58969,-1.57251 3.95025,-1.57251 0.21128,0 0.45773,-0.11906 0.54766,-0.26458 0.0899,-0.14552 0.39462,-0.26459 0.67708,-0.26459 0.28245,0 0.51355,-0.11906 0.51355,-0.26458 0,-0.14552 0.18434,-0.26458 0.40966,-0.26458 0.2253,0 0.88525,-0.22979 1.46654,-0.51064 0.58129,-0.28085 1.42878,-0.59231 1.88331,-0.69214 0.45452,-0.0998 1.06718,-0.40583 1.36146,-0.67999 0.30074,-0.28018 0.91876,-0.49848 1.41121,-0.49848 0.75384,0 0.87615,0.0907 0.87615,0.6494 0,0.54784 -0.30918,0.79613 -1.97685,1.5875 -1.08726,0.51595 -2.11063,0.9381 -2.27414,0.9381 -0.16351,0 -0.91104,0.32916 -1.66117,0.73147 -0.75014,0.40232 -1.84013,0.89227 -2.42221,1.08879 -1.31818,0.44503 -2.32931,0.88036 -5.06739,2.18168 -1.18633,0.56383 -2.27094,1.02514 -2.41023,1.02514 -0.1393,0 -1.01413,0.37286 -1.94407,0.82858 -0.92995,0.45572 -1.92894,0.91949 -2.21998,1.0306 -0.90355,0.34496 -4.14749,1.83248 -8.16094,3.74222 -0.55946,0.26621 -1.18454,0.48402 -1.38906,0.48402 -0.20453,0 -0.37188,0.11906 -0.37188,0.26458 0,0.14552 -0.18021,0.26458 -0.40046,0.26458 -0.22026,0 -0.60721,0.11147 -0.8599,0.24772 -0.25268,0.13624 -1.1738,0.57835 -2.04693,0.98246 -0.87312,0.40411 -1.62495,0.82172 -1.67073,0.92803 -0.0458,0.10631 -0.52203,0.33004 -1.05834,0.49718 -0.5363,0.16714 -2.16572,0.87455 -3.62093,1.57204 -1.45521,0.69747 -3.12208,1.4703 -3.70416,1.71737 -0.58209,0.24709 -1.23693,0.55915 -1.45521,0.69349 -0.21828,0.13433 -0.57547,0.30775 -0.79375,0.38536 -0.21828,0.0776 -1.46844,0.67268 -2.77813,1.32238 -1.30968,0.6497 -2.53008,1.18075 -2.71198,1.18012 -0.1819,-5.3e-4 -0.33073,0.0991 -0.33073,0.22154 0,0.12249 -0.74414,0.44074 -1.65364,0.70723 -0.90951,0.26649 -1.83224,0.62236 -2.05052,0.79082 -0.50193,0.38736 -3.37069,1.71885 -3.70335,1.71885 -0.23887,0 -1.96277,0.89999 -2.51436,1.31267 -0.14552,0.10887 -1.15755,0.53485 -2.24896,0.94662 -1.0914,0.41176 -2.16297,0.8849 -2.38125,1.05142 -0.36258,0.27658 -1.47615,0.81419 -4.7625,2.29923 -0.65484,0.29592 -1.64836,0.76207 -2.20781,1.03592 -0.55946,0.27383 -1.12329,0.49789 -1.25297,0.49789 -0.2104,0 -5.76345,2.55914 -6.92053,3.18935 -0.25269,0.13763 -0.63964,0.25023 -0.8599,0.25023 -0.22025,0 -0.40047,0.11906 -0.40047,0.26458 0,0.14552 -0.11371,0.26459 -0.2527,0.26459 -0.25749,0 -1.93496,0.75114 -6.28361,2.8137 -1.33939,0.63527 -2.61932,1.15505 -2.84427,1.15505 -0.22495,0 -0.409,0.11906 -0.409,0.26458 0,0.14552 -0.2282,0.26458 -0.50712,0.26458 -0.27891,0 -0.5468,0.0893 -0.59531,0.19844 -0.0485,0.10914 -0.62397,0.46666 -1.27882,0.79449 -1.31914,0.66038 -2.69707,0.73158 -3.70417,0.19141 z m -14.55208,-48.41246 c 0,-0.21828 0.1786,-0.39688 0.39688,-0.39688 0.29398,0 0.39687,-0.30868 0.39687,-1.19062 0,-0.88194 -0.10289,-1.19063 -0.39687,-1.19063 -0.22049,0 -0.39688,-0.23518 -0.39688,-0.52916 0,-0.47037 0.17639,-0.52917 1.5875,-0.52917 1.41111,0 1.5875,0.0588 1.5875,0.52917 0,0.29104 -0.11906,0.52916 -0.26458,0.52916 -0.14552,0 -0.26458,0.53579 -0.26458,1.19063 0,0.65484 0.11906,1.19062 0.26458,1.19062 0.14552,0 0.26458,0.1786 0.26458,0.39688 0,0.30868 -0.35277,0.39687 -1.5875,0.39687 -1.23472,0 -1.5875,-0.0882 -1.5875,-0.39687 z m 4.49792,0 c 0,-0.22049 0.23518,-0.39688 0.52916,-0.39688 0.45078,0 0.52917,-0.17639 0.52917,-1.19062 0,-0.65484 -0.11906,-1.19063 -0.26458,-1.19063 -0.14552,0 -0.26459,0.1786 -0.26459,0.39688 0,0.24694 -0.24988,0.39687 -0.66145,0.39687 -0.57957,0 -0.66146,-0.11465 -0.66146,-0.92604 v -0.92604 h 2.51354 2.51354 v 0.92604 c 0,0.74965 -0.10079,0.92604 -0.52917,0.92604 -0.29398,0 -0.52916,-0.17639 -0.52916,-0.39687 0,-0.21828 -0.11906,-0.39688 -0.26459,-0.39688 -0.14552,0 -0.26458,0.53579 -0.26458,1.19063 0,0.88194 0.1029,1.19062 0.39688,1.19062 0.21828,0 0.39687,0.1786 0.39687,0.39688 0,0.31207 -0.36748,0.39687 -1.71979,0.39687 -1.35231,0 -1.71979,-0.0848 -1.71979,-0.39687 z m 7.30563,-0.0996 c -0.63279,-0.69922 -0.53451,-1.58231 0.21405,-1.92338 0.38041,-0.17332 0.58328,-0.441 0.49957,-0.65915 -0.25145,-0.65526 0.45853,-1.15433 1.64213,-1.15433 1.23716,0 1.64854,0.45965 1.18558,1.32469 -0.35926,0.67129 -0.33189,0.96608 0.0539,0.58031 0.17463,-0.17462 0.71041,-0.3175 1.19063,-0.3175 0.67871,0 0.87312,0.11096 0.87312,0.49831 0,0.27579 -0.23629,0.5601 -0.52917,0.63669 -0.29104,0.0761 -0.52916,0.26859 -0.52916,0.42773 0,0.15914 0.23812,0.28935 0.52916,0.28935 0.29105,0 0.52917,0.16874 0.52917,0.37497 0,0.29765 -0.53941,0.37687 -2.61625,0.38425 -2.18069,0.008 -2.68724,-0.0692 -3.0427,-0.46194 z m 1.92593,-0.9935 c -0.22925,-0.27623 -0.39992,-0.30375 -0.60595,-0.0977 -0.20603,0.20603 -0.17921,0.35331 0.0952,0.52292 0.53786,0.33241 0.89366,0.0362 0.51073,-0.4252 z m 6.11427,1.0931 c 0,-0.21828 0.11906,-0.39688 0.26458,-0.39688 0.14553,0 0.26459,-0.53578 0.26459,-1.19062 0,-0.65484 -0.11906,-1.19063 -0.26459,-1.19063 -0.14552,0 -0.26458,-0.23812 -0.26458,-0.52916 0,-0.49557 0.17639,-0.52917 2.77813,-0.52917 2.60173,0 2.77812,0.0336 2.77812,0.52917 0,0.29104 -0.11906,0.52916 -0.26458,0.52916 -0.14552,0 -0.26459,0.53579 -0.26459,1.19063 0,0.65484 0.11907,1.19062 0.26459,1.19062 0.14552,0 0.26458,0.1786 0.26458,0.39688 0,0.32758 -0.48507,0.39687 -2.77812,0.39687 -2.29306,0 -2.77813,-0.0693 -2.77813,-0.39687 z m 3.175,-0.79375 c 0,-0.21828 -0.17859,-0.39688 -0.39687,-0.39688 -0.21828,0 -0.39688,0.1786 -0.39688,0.39688 0,0.21828 0.1786,0.39687 0.39688,0.39687 0.21828,0 0.39687,-0.17859 0.39687,-0.39687 z m -0.0507,-1.73964 c -0.0521,-0.15643 -0.20792,-0.28442 -0.34616,-0.28442 -0.13825,0 -0.29402,0.12799 -0.34617,0.28442 -0.0521,0.15644 0.10363,0.28443 0.34617,0.28443 0.24253,0 0.39831,-0.12799 0.34616,-0.28443 z m 4.54863,2.74341 c -0.80473,-0.29417 -1.5875,-1.24574 -1.5875,-1.92981 0,-1.19675 1.08466,-1.94413 2.99833,-2.06598 1.49484,-0.0952 1.74178,-0.0354 2.50499,0.60684 1.84077,1.5489 0.5789,3.59838 -2.18876,3.55491 -0.7316,-0.0115 -1.50878,-0.0862 -1.72706,-0.16596 z m 2.32238,-1.01877 c 1.12354,-0.78696 0.50398,-2.08532 -0.91732,-1.92235 -0.60267,0.0691 -0.76044,0.23324 -0.83245,0.86597 -0.0591,0.51939 0.0685,0.89576 0.3813,1.12448 0.59378,0.43418 0.65576,0.4311 1.36847,-0.0681 z m 3.23387,0.41187 c 0,-0.57649 0.12673,-0.79595 0.46302,-0.80179 0.44097,-0.008 0.44097,-0.0209 0,-0.27773 -0.60229,-0.3508 -0.63511,-1.97283 -0.0445,-2.19946 0.23019,-0.0883 1.00409,-0.1606 1.71979,-0.1606 1.21164,0 1.30128,0.0456 1.30128,0.66146 0,0.50841 -0.13774,0.66236 -0.59531,0.66536 -0.583,0.004 -0.58163,0.0108 0.0661,0.33686 0.42046,0.21164 0.69253,0.60165 0.74673,1.07043 0.13372,1.15656 -0.34673,1.49922 -2.10204,1.49922 -1.5515,0 -1.5551,-0.002 -1.5551,-0.79375 z m 2.11666,-0.36856 c 0,-0.0572 -0.17859,-0.17252 -0.39687,-0.25628 -0.21828,-0.0838 -0.39688,-0.037 -0.39688,0.10398 0,0.14095 0.1786,0.25628 0.39688,0.25628 0.21828,0 0.39687,-0.0468 0.39687,-0.10398 z m 2.91043,0.76544 c 0,-0.21828 0.1786,-0.39688 0.39688,-0.39688 0.29398,0 0.39687,-0.30868 0.39687,-1.19062 0,-0.65484 -0.11906,-1.19063 -0.26458,-1.19063 -0.14552,0 -0.26459,0.1786 -0.26459,0.39688 0,0.22048 -0.23518,0.39687 -0.52917,0.39687 -0.42838,0 -0.52917,-0.17639 -0.52917,-0.92604 v -0.92604 h 2.51355 2.51354 v 0.92604 c 0,0.81139 -0.0819,0.92604 -0.66145,0.92604 -0.41158,0 -0.66146,-0.14993 -0.66146,-0.39687 0,-0.21828 -0.11906,-0.39688 -0.26459,-0.39688 -0.14552,0 -0.26458,0.53579 -0.26458,1.19063 0,0.88194 0.1029,1.19062 0.39688,1.19062 0.21828,0 0.39687,0.1786 0.39687,0.39688 0,0.30868 -0.35278,0.39687 -1.5875,0.39687 -1.23472,0 -1.5875,-0.0882 -1.5875,-0.39687 z m 4.49792,0 c 0,-0.21828 0.17859,-0.39688 0.39687,-0.39688 0.29398,0 0.39688,-0.30868 0.39688,-1.19062 0,-0.88194 -0.1029,-1.19063 -0.39688,-1.19063 -0.22048,0 -0.39687,-0.23518 -0.39687,-0.52916 0,-0.47037 0.17639,-0.52917 1.5875,-0.52917 1.41111,0 1.5875,0.0588 1.5875,0.52917 0,0.29104 -0.11906,0.52916 -0.26459,0.52916 -0.14552,0 -0.26458,0.53579 -0.26458,1.19063 0,0.65484 0.11906,1.19062 0.26458,1.19062 0.14553,0 0.26459,0.1786 0.26459,0.39688 0,0.30868 -0.35278,0.39687 -1.5875,0.39687 -1.23473,0 -1.5875,-0.0882 -1.5875,-0.39687 z m 3.70416,0 c 0,-0.21828 0.1786,-0.39688 0.39688,-0.39688 0.29255,0 0.39687,-0.30553 0.39687,-1.16231 0,-0.7891 -0.12743,-1.21122 -0.39687,-1.31462 -0.21828,-0.0838 -0.39688,-0.33462 -0.39688,-0.55747 0,-0.3121 0.31912,-0.40573 1.38907,-0.40756 1.24552,-0.002 1.46351,0.0867 2.10955,0.85989 0.39626,0.47425 0.72368,0.71345 0.7276,0.53155 0.004,-0.1819 -0.11194,-0.33073 -0.25747,-0.33073 -0.14552,0 -0.26458,-0.23812 -0.26458,-0.52916 0,-0.45861 0.17639,-0.52917 1.32292,-0.52917 1.01158,0 1.32291,0.0953 1.32291,0.40518 0,0.22285 -0.17859,0.47371 -0.39687,0.55747 -0.29065,0.11154 -0.39688,0.56962 -0.39688,1.71149 0,1.5462 -0.006,1.55919 -0.7718,1.55919 -0.58373,0 -1.00156,-0.27402 -1.71461,-1.12448 -0.9338,-1.11372 -0.94286,-1.11752 -0.94799,-0.39687 -0.003,0.47267 0.13388,0.7276 0.3917,0.7276 0.21828,0 0.39687,0.1786 0.39687,0.39688 0,0.30467 -0.33808,0.39687 -1.45521,0.39687 -1.11713,0 -1.45521,-0.0922 -1.45521,-0.39687 z m 7.75636,0.13044 c -1.17312,-0.47266 -1.5033,-2.13875 -0.63615,-3.20998 0.4512,-0.55739 0.75025,-0.63157 2.77813,-0.68909 l 2.2725,-0.0644 v 0.79206 c 0,0.66337 -0.10494,0.79206 -0.64584,0.79206 -0.35522,0 -0.71943,-0.11906 -0.80937,-0.26458 -0.0899,-0.14552 -0.50949,-0.26459 -0.93235,-0.26459 -1.05991,0 -1.51512,0.84825 -0.93244,1.73754 0.45167,0.68933 0.8348,0.78828 1.46791,0.37913 0.33917,-0.21919 0.32956,-0.25707 -0.0661,-0.26053 -0.28528,-0.002 -0.46302,-0.20718 -0.46302,-0.53322 0,-0.46503 0.17639,-0.52917 1.45521,-0.52917 1.21106,0 1.45452,0.0777 1.45115,0.46302 -0.005,0.59204 -0.23505,0.91489 -1.04701,1.47055 -0.70714,0.48393 -2.88918,0.58553 -3.89258,0.18125 z m 7.58948,-0.51523 c 0,-0.65634 0.10909,-0.80584 0.58804,-0.80584 h 0.58803 l -0.58803,-0.41187 c -0.72857,-0.51031 -0.77052,-1.58852 -0.0763,-1.96007 0.28148,-0.15064 1.11491,-0.27389 1.85208,-0.27389 1.25328,0 1.34031,0.043 1.34031,0.66146 0,0.5046 -0.14117,0.66543 -0.59531,0.67823 l -0.59531,0.0168 0.5874,0.23636 c 0.67829,0.27294 1.06845,1.46864 0.68071,2.08616 -0.18983,0.30232 -0.76389,0.44426 -2.02333,0.5003 l -1.75832,0.0782 z m 1.98437,-0.54125 c -0.0899,-0.14552 -0.27556,-0.26459 -0.41249,-0.26459 -0.13693,0 -0.24897,0.11907 -0.24897,0.26459 0,0.14552 0.18563,0.26458 0.4125,0.26458 0.22686,0 0.3389,-0.11906 0.24896,-0.26458 z m 3.83646,1.13606 c -0.75894,-0.27744 -1.5875,-1.23198 -1.5875,-1.82889 0,-0.33032 0.28162,-0.92798 0.62581,-1.32813 0.53609,-0.62323 0.86992,-0.74309 2.32833,-0.83596 1.54424,-0.0983 1.78122,-0.0422 2.54918,0.60403 1.84077,1.5489 0.57891,3.59838 -2.18875,3.55491 -0.73161,-0.0115 -1.50879,-0.0862 -1.72707,-0.16596 z m 2.32238,-1.01877 c 1.12354,-0.78696 0.50398,-2.08532 -0.91732,-1.92235 -0.60266,0.0691 -0.76044,0.23324 -0.83244,0.86597 -0.0591,0.51939 0.0685,0.89576 0.38129,1.12448 0.59379,0.43418 0.65576,0.4311 1.36847,-0.0681 z m 2.96929,0.80875 c 0,-0.21828 0.17859,-0.39688 0.39687,-0.39688 0.29255,0 0.39688,-0.30553 0.39688,-1.16231 0,-0.7891 -0.12744,-1.21122 -0.39688,-1.31462 -0.21828,-0.0838 -0.39687,-0.33462 -0.39687,-0.55747 0,-0.31883 0.33832,-0.40518 1.5875,-0.40518 1.41111,0 1.5875,0.0588 1.5875,0.52917 0,0.29104 -0.11906,0.52916 -0.26459,0.52916 -0.14552,0 -0.26458,0.53579 -0.26458,1.19063 0,1.01423 0.0784,1.19062 0.52917,1.19062 0.38805,0 0.52916,-0.17639 0.52916,-0.66145 0,-0.55857 0.12348,-0.66146 0.79375,-0.66146 0.74966,0 0.79375,0.0588 0.79375,1.05833 v 1.05833 h -2.64583 c -2.17546,0 -2.64583,-0.0705 -2.64583,-0.39687 z m 6.28385,0.1111 c -0.34229,-0.19937 -0.46302,-0.61118 -0.46302,-1.57946 0,-0.72037 -0.11906,-1.30977 -0.26458,-1.30977 -0.14552,0 -0.26459,-0.23812 -0.26459,-0.52916 0,-0.49389 0.17639,-0.52917 2.64584,-0.52917 2.1273,0 2.64583,0.0747 2.64583,0.38126 0,0.20969 -0.11906,0.45484 -0.26458,0.54478 -0.14552,0.0899 -0.26459,0.68377 -0.26459,1.31964 0,0.69823 -0.16466,1.32077 -0.41577,1.57188 -0.47468,0.47468 -2.62001,0.55782 -3.35454,0.13 z m 2.13472,-1.99446 c -0.0463,-0.56488 -0.20326,-1.02706 -0.34878,-1.02706 -0.30908,0 -0.50742,1.57925 -0.27455,2.1861 0.28309,0.73771 0.71325,-0.0621 0.62333,-1.15904 z m 3.22309,1.88336 c 0,-0.22049 0.23519,-0.39688 0.52917,-0.39688 0.45077,0 0.52917,-0.17639 0.52917,-1.19062 0,-0.65484 -0.11906,-1.19063 -0.26459,-1.19063 -0.14552,0 -0.26458,0.1786 -0.26458,0.39688 0,0.24694 -0.24988,0.39687 -0.66146,0.39687 -0.57956,0 -0.66146,-0.11465 -0.66146,-0.92604 v -0.92604 h 2.51355 2.51354 v 0.92604 c 0,0.74965 -0.1008,0.92604 -0.52917,0.92604 -0.29398,0 -0.52917,-0.17639 -0.52917,-0.39687 0,-0.21828 -0.11906,-0.39688 -0.26458,-0.39688 -0.14552,0 -0.26458,0.53579 -0.26458,1.19063 0,0.88194 0.10289,1.19062 0.39687,1.19062 0.21828,0 0.39688,0.1786 0.39688,0.39688 0,0.31207 -0.36748,0.39687 -1.71979,0.39687 -1.35232,0 -1.7198,-0.0848 -1.7198,-0.39687 z m 4.7625,0 c 0,-0.22049 0.23519,-0.39688 0.52917,-0.39688 0.44869,0 0.52917,-0.17639 0.52917,-1.15976 0,-0.93725 -0.10153,-1.18632 -0.52917,-1.29815 -0.29104,-0.0761 -0.52917,-0.32812 -0.52917,-0.56002 0,-0.34256 0.32258,-0.42165 1.7198,-0.42165 1.36798,0 1.71979,0.0829 1.71979,0.40518 0,0.22285 -0.1786,0.47371 -0.39688,0.55747 -0.26944,0.1034 -0.39687,0.52552 -0.39687,1.31462 0,0.85678 0.10432,1.16231 0.39687,1.16231 0.21828,0 0.39688,0.1786 0.39688,0.39688 0,0.31207 -0.36748,0.39687 -1.71979,0.39687 -1.35232,0 -1.7198,-0.0848 -1.7198,-0.39687 z m 4.7669,0.0566 c -0.84205,-0.42605 -1.24812,-1.53972 -0.91097,-2.49839 0.34105,-0.96979 1.2626,-1.3861 3.07868,-1.39079 1.3093,-0.003 1.60023,0.0927 2.18281,0.721 0.90084,0.97151 0.88885,2.11477 -0.0304,2.9047 -0.5521,0.4744 -1.01971,0.6029 -2.18282,0.59983 -0.81411,-0.002 -1.77588,-0.1535 -2.13726,-0.33635 z m 2.58257,-0.86537 c 0.64697,-0.45316 0.76269,-1.15972 0.27053,-1.65188 -1.02764,-1.02764 -2.64219,0.45687 -1.66784,1.53351 0.57718,0.63778 0.64726,0.64372 1.39731,0.11837 z m 2.96928,0.80875 c 0,-0.21828 0.1786,-0.39688 0.39688,-0.39688 0.29255,0 0.39687,-0.30553 0.39687,-1.16231 0,-0.7891 -0.12743,-1.21122 -0.39687,-1.31462 -0.21828,-0.0838 -0.39688,-0.33462 -0.39688,-0.55747 0,-0.31441 0.32385,-0.40518 1.44567,-0.40518 1.37308,0 1.47937,0.0496 2.11667,0.98746 0.43274,0.63684 0.671,0.82473 0.671,0.52917 0,-0.25206 -0.11906,-0.4583 -0.26459,-0.4583 -0.14552,0 -0.26458,-0.23812 -0.26458,-0.52916 0,-0.45077 0.17639,-0.52917 1.19063,-0.52917 1.01423,0 1.19062,0.0784 1.19062,0.52917 0,0.29104 -0.11906,0.52916 -0.26458,0.52916 -0.14699,0 -0.26459,0.70556 -0.26459,1.5875 v 1.5875 h -0.92604 c -0.50932,0 -0.93088,-0.0893 -0.93679,-0.19843 -0.006,-0.10914 -0.3631,-0.61066 -0.79375,-1.11449 l -0.783,-0.91605 v 0.71761 c 0,0.46149 0.14165,0.71761 0.39688,0.71761 0.21828,0 0.39687,0.1786 0.39687,0.39688 0,0.30467 -0.33808,0.39687 -1.45521,0.39687 -1.11713,0 -1.45521,-0.0922 -1.45521,-0.39687 z m 6.61459,-0.39688 c 0,-0.64385 0.11105,-0.79375 0.58804,-0.79375 h 0.58803 l -0.58803,-0.41187 c -0.72857,-0.51031 -0.77052,-1.58852 -0.0763,-1.96007 0.28148,-0.15064 1.11491,-0.27389 1.85208,-0.27389 1.25328,0 1.34031,0.043 1.34031,0.66146 0,0.50841 -0.13774,0.66236 -0.59531,0.66536 -0.58299,0.004 -0.58163,0.0108 0.0661,0.33686 0.42046,0.21164 0.69252,0.60165 0.74672,1.07043 0.13644,1.18011 -0.33915,1.49922 -2.23433,1.49922 h -1.68739 z m 1.90059,-0.58649 c -0.18986,-0.18985 -0.31309,-0.20548 -0.31309,-0.0397 0,0.35316 0.3129,0.66606 0.48948,0.48948 0.0752,-0.0752 -0.004,-0.27759 -0.17639,-0.44979 z m -180.02571,-2.56999 c -1.54351,-0.97886 -2.66352,-2.14723 -3.5097,-3.6612 -0.57737,-1.03302 -0.66312,-1.50997 -0.66312,-3.68829 0,-2.38531 0.0434,-2.57597 0.93273,-4.0933 0.513,-0.87531 1.07855,-1.7366 1.25677,-1.91398 0.91916,-0.91485 3.21824,-2.24524 4.15293,-2.40316 0.85892,-0.14511 1.20294,-0.38976 1.80123,-1.28094 0.40675,-0.60587 1.41738,-1.63737 2.24585,-2.29221 l 1.50629,-1.19062 0.005,-5.82802 0.005,-5.82801 0.77884,-0.85272 0.77883,-0.85271 h 10.43855 10.43855 l 0.83337,0.94915 0.83336,0.94915 -0.0784,6.98857 -0.0784,6.98857 0.72761,-2.2e-4 c 0.66699,-2e-4 0.7276,0.0841 0.7276,1.01199 0,0.71596 -0.17923,1.18059 -0.61236,1.5875 -0.58203,0.54679 -0.84891,0.57529 -5.38727,0.57529 h -4.77491 l 0.1306,0.68319 c 0.0718,0.37576 0.26368,0.71982 0.42634,0.76459 2.45036,0.67444 4.39484,1.99606 5.45098,3.70492 0.44494,0.71992 0.53329,1.3176 0.53329,3.60748 0,2.72644 -0.006,2.75391 -0.96719,4.14892 -0.53195,0.77238 -1.46515,1.69614 -2.07377,2.05281 l -1.10658,0.6485 h -11.76501 -11.76506 z m 23.72864,-2.77452 c 1.6929,-0.70734 2.39491,-2.73891 1.63447,-4.73007 -0.54244,-1.42037 -1.51222,-2.01504 -3.67514,-2.25362 -1.52072,-0.16775 -1.65768,-0.23599 -1.73055,-0.86233 -0.0435,-0.37409 -0.34127,-1.44565 -0.66164,-2.38125 l -0.58249,-1.70108 -5.6761,-0.0716 c -3.89917,-0.0492 -5.73457,-0.16616 -5.86286,-0.37375 -0.11227,-0.18165 -0.48653,0.24201 -0.93831,1.06215 -0.79974,1.45181 -0.86982,1.49603 -2.78237,1.75544 -1.30153,0.17653 -2.98952,1.28316 -3.57857,2.34607 -0.53485,0.9651 -0.68285,2.7316 -0.34637,4.13419 0.24861,1.03634 0.54781,1.51169 1.35279,2.14925 0.56847,0.45023 1.36044,0.91699 1.75994,1.03723 0.3995,0.12025 5.10574,0.22886 10.4583,0.24137 7.83646,0.0183 9.90664,-0.0503 10.6289,-0.35203 z m 5.37477,-22.44554 -0.071,-6.15156 h -9.26041 -9.26042 l -0.071,6.15156 -0.071,6.15156 h 9.40246 9.40246 z m -13.7238,3.14314 c -2.85649,-1.53925 -2.88022,-1.56038 -2.882,-2.56707 -0.002,-0.86524 0.10475,-0.99758 1.25509,-1.56275 0.69123,-0.3396 1.57281,-0.83695 1.95908,-1.10523 1.00814,-0.70019 1.28207,-0.60894 1.28207,0.42711 0,0.80711 -0.14296,0.99867 -1.21353,1.62607 l -1.21353,0.71118 1.14738,0.57588 c 1.00391,0.50388 1.15766,0.69757 1.22951,1.54894 0.0452,0.53517 -0.0264,0.97304 -0.15904,0.97304 -0.13263,0 -0.76489,-0.28222 -1.40503,-0.62717 z m 7.74844,-0.34167 c 0.0721,-0.87691 0.21895,-1.08171 1.0757,-1.50034 0.5457,-0.26665 0.99186,-0.5643 0.99147,-0.66146 -2.7e-4,-0.0972 -0.44688,-0.41477 -0.99219,-0.70581 -0.83932,-0.44796 -1.00407,-0.68143 -1.07359,-1.52136 -0.092,-1.11182 0.073,-1.19842 1.00837,-0.52916 0.35592,0.25466 1.24561,0.76067 1.9771,1.12448 1.21497,0.60425 1.32998,0.74098 1.32998,1.58112 0,0.84099 -0.13579,1.00176 -1.5875,1.87947 -0.87312,0.5279 -1.8632,1.04729 -2.20017,1.1542 -0.57609,0.18278 -0.60769,0.13373 -0.52917,-0.82114 z m -5.86787,0.10895 c 0.002,-0.71081 0.3209,-1.1933 2.8951,-4.38132 1.92474,-2.38371 2.43452,-2.73313 2.61669,-1.79354 0.16733,0.86307 -0.20357,1.60772 -1.65895,3.33059 -0.79903,0.94588 -1.76679,2.10674 -2.15058,2.57969 -0.82578,1.01761 -1.70487,1.15425 -1.70226,0.26458 z m 37.28499,17.19181 c -1.76035,-0.74548 -3.26456,-1.88199 -3.93153,-2.97046 -0.76984,-1.25636 -1.41824,-4.30261 -1.26714,-5.95312 0.36552,-3.99248 1.70015,-6.24292 4.55045,-7.67292 1.83026,-0.91824 1.87522,-0.92604 5.33577,-0.92604 1.91947,0 3.54461,0.0595 3.61142,0.13229 0.0668,0.0728 0.20871,0.41559 0.31533,0.76185 0.18367,0.59646 0.14714,0.62039 -0.69474,0.45522 -0.48872,-0.0959 -1.86135,-0.24478 -3.05027,-0.33089 -3.84384,-0.2784 -6.30666,1.07108 -7.79868,4.2732 -1.93552,4.15395 -0.66892,8.96931 2.81856,10.71562 1.13121,0.56644 1.68204,0.66146 3.83451,0.66146 1.38245,0 3.03578,-0.1025 3.67407,-0.22779 l 1.16053,-0.22778 -0.18985,0.75641 c -0.10442,0.41602 -0.23806,0.80463 -0.297,0.86356 -0.0589,0.0589 -1.56731,0.15368 -3.35193,0.21054 -2.94978,0.094 -3.37885,0.0466 -4.7195,-0.52115 z m -23.26382,0.0809 c 0,-0.30923 3.12122,-6.3861 3.46298,-6.74227 0.13265,-0.13824 0.24119,-0.4045 0.24119,-0.59168 0,-0.18718 0.52296,-1.28579 1.16214,-2.44134 0.63919,-1.15556 1.26427,-2.37965 1.38907,-2.7202 0.1248,-0.34055 0.75886,-1.60503 1.40903,-2.80994 1.15165,-2.13431 1.20524,-2.18873 2.07945,-2.11208 0.86733,0.0761 0.92195,0.14946 1.63359,2.19535 0.40494,1.16417 1.35358,3.84307 2.1081,5.95312 2.36682,6.61897 3.1832,8.99492 3.1832,9.26424 0,0.14342 -0.33264,0.26076 -0.73919,0.26076 -0.69618,0 -0.78251,-0.13472 -1.48347,-2.3151 -0.40934,-1.27331 -1.0409,-3.12215 -1.40347,-4.10854 l -0.6592,-1.79344 -3.43274,0.0737 -3.43275,0.0736 -1.05778,2.11667 c -3.04268,6.08852 -2.95485,5.94849 -3.73255,5.95088 -0.40018,10e-4 -0.7276,-0.11294 -0.7276,-0.25372 z m 11.37448,-10.79039 c -0.61202,-1.95495 -1.56395,-4.37136 -1.82959,-4.64431 -0.11376,-0.11689 -0.93355,1.22256 -1.82175,2.97656 l -1.6149,3.1891 h 2.87126 2.87126 z m 23.52716,10.9348 c -0.0614,-0.0613 -0.0344,-1.34127 0.0599,-2.84427 0.0943,-1.50299 0.26079,-5.44139 0.36995,-8.75199 l 0.19847,-6.01927 h 5.28206 c 4.70785,0 5.2646,0.0455 5.12146,0.41852 -0.0883,0.23018 -0.1606,0.4591 -0.1606,0.50871 0,0.0496 -2.02405,0.0217 -4.49791,-0.062 l -4.49792,-0.15217 v 2.11819 c 0,1.165 -0.0765,2.85002 -0.16998,3.74449 l -0.16998,1.62631 h 4.29307 c 3.31671,0 4.26807,0.0752 4.18312,0.33073 -0.0802,0.24136 -1.21943,0.35037 -4.21557,0.4034 l -4.10562,0.0727 -0.1721,2.81276 c -0.0947,1.54703 -0.1721,3.2887 -0.1721,3.87039 v 1.05755 l 4.49791,-0.18259 4.49792,-0.18259 v 0.67131 0.67131 h -5.11528 c -2.8134,0 -5.16547,-0.0502 -5.22682,-0.11155 z m 25.68794,-0.46586 c -1.59897,-0.45774 -3.45766,-1.85833 -4.38091,-3.30119 -1.39326,-2.17737 -1.79944,-3.61529 -1.81921,-6.44015 -0.0196,-2.80476 0.40238,-4.29422 1.79914,-6.35 1.04969,-1.54495 1.57938,-1.99822 3.34265,-2.86036 1.3007,-0.63597 1.75286,-0.71151 4.25864,-0.71151 2.68237,0 2.88227,0.0401 4.62915,0.92877 1.54491,0.78593 1.95814,1.15038 2.68667,2.36955 1.05702,1.76888 1.12164,2.94734 0.21152,3.85745 -0.90805,0.90806 -1.80224,0.83639 -2.62602,-0.21046 -0.37217,-0.47294 -1.06736,-1.35643 -1.54488,-1.9633 -1.10968,-1.4103 -1.9544,-1.77085 -3.79188,-1.61847 -1.30345,0.10809 -1.59762,0.2509 -2.65614,1.28943 -1.54273,1.5136 -2.0716,3.20664 -1.90433,6.09619 0.098,1.6924 0.25914,2.29039 0.89746,3.32977 1.06121,1.728 2.12745,2.2454 4.395,2.13269 2.11383,-0.10507 2.84393,-0.65547 4.17016,-3.14373 0.76687,-1.43879 0.90062,-1.55852 1.7412,-1.55852 2.01025,0 2.54443,1.94377 1.24126,4.51662 -0.79633,1.57219 -2.80536,3.2013 -4.5432,3.68406 -1.19357,0.33156 -4.88334,0.30326 -6.10628,-0.0468 z m 17.02719,0.1235 c -0.45771,-0.0576 -1.05302,-0.3485 -1.32292,-0.64653 -0.45336,-0.50063 -0.49653,-1.20093 -0.56697,-9.19721 -0.0746,-8.46457 -0.0639,-8.67096 0.48223,-9.36529 0.7426,-0.94406 2.27939,-0.99214 3.11978,-0.0976 0.56306,0.59935 0.57528,0.77369 0.57528,8.20209 v 7.58971 h 4.49792 c 4.14514,0 4.53942,0.0415 5.02708,0.52917 1.08812,1.08811 0.49829,2.52544 -1.19771,2.91865 -1.0089,0.23391 -8.89169,0.28368 -10.61469,0.067 z m 19.29161,-0.31627 c -2.3825,-0.87768 -4.14596,-2.47105 -5.15055,-4.65377 -0.54527,-1.18474 -0.60793,-1.70983 -0.59991,-5.02709 0.0102,-4.21672 0.20417,-4.89589 2.01657,-7.06061 1.62297,-1.93846 3.3308,-2.64468 6.76939,-2.79928 2.35874,-0.10605 2.93642,-0.0417 4.46239,0.49701 3.22636,1.139 5.06401,3.56266 5.7248,7.55043 0.64438,3.88867 -1.04759,8.93161 -3.4417,10.25806 -2.67558,1.48241 -3.07573,1.59877 -5.75082,1.6724 -2.09003,0.0575 -2.93663,-0.0343 -4.03017,-0.43715 z m 5.85587,-3.56737 c 1.78898,-0.74748 3.07734,-3.30971 3.05748,-6.08061 -0.028,-3.90371 -2.18312,-6.51517 -5.37673,-6.51517 -1.50382,0 -2.46215,0.45575 -3.54021,1.68358 -1.08409,1.23471 -1.50757,2.58223 -1.50808,4.79871 -7.9e-4,3.1105 1.13661,5.43367 3.0283,6.18577 0.97773,0.38873 3.32966,0.34955 4.33924,-0.0723 z m 15.63657,3.70577 c -1.59111,-0.49872 -3.14659,-1.63731 -3.78248,-2.76873 -0.809,-1.43943 -1.17322,-5.11265 -1.06824,-10.77342 0.10573,-5.7005 0.28024,-6.19898 2.17021,-6.19898 2.09472,0 2.1315,0.12293 2.28386,7.63383 0.17051,8.40495 0.3363,8.77573 3.91983,8.76643 1.9599,-0.005 2.69666,-0.40097 3.42236,-1.839 0.56443,-1.11843 0.59531,-1.4865 0.59531,-7.09409 0,-7.08282 0.10876,-7.45465 2.18282,-7.46312 0.65297,-0.003 1.17846,0.18222 1.53702,0.54079 0.5272,0.52719 0.54219,0.77349 0.46302,7.60677 l -0.0818,7.06193 -0.73853,1.40181 c -0.78881,1.49727 -2.38527,2.74076 -4.14713,3.23023 -1.29838,0.3607 -5.4784,0.29608 -6.75624,-0.10445 z m 18.04459,0.11165 c -1.25057,-0.24211 -1.4884,-0.47673 -1.78674,-1.76262 -0.31269,-1.34774 -0.30768,-14.74565 0.006,-16.0987 0.38485,-1.65994 0.60788,-1.72688 5.75395,-1.72688 3.88165,0 4.81897,0.0804 6.101,0.52317 1.78016,0.61485 3.19166,2.02263 4.22372,4.2126 0.61961,1.31478 0.67267,1.71499 0.66662,5.02785 -0.007,3.99305 -0.20011,4.74185 -1.77266,6.88409 -1.31054,1.78532 -3.02505,2.64026 -5.90188,2.94298 -2.66573,0.2805 -5.83393,0.27942 -7.29003,-0.002 z m 6.9888,-3.71869 c 1.90556,-0.3611 2.81725,-1.28212 3.29989,-3.33365 0.70145,-2.98163 0.30598,-6.28487 -0.91079,-7.60751 -1.0527,-1.14429 -2.13086,-1.48877 -4.6596,-1.48877 h -2.25745 v 6.35 6.35 h 1.55139 c 0.85326,0 2.19271,-0.12153 2.97656,-0.27007 z m 8.43663,-22.90301 c -0.3638,-0.20187 -0.92232,-0.36879 -1.24115,-0.37093 -0.31884,-0.002 -0.65329,-0.12296 -0.74322,-0.26848 -0.0899,-0.14553 -0.39624,-0.26459 -0.68067,-0.26459 -0.28443,0 -0.72388,-0.10339 -0.97657,-0.22976 -0.92173,-0.46096 -5.64284,-1.97188 -7.20631,-2.30626 -0.3638,-0.0778 -0.77456,-0.25341 -0.91281,-0.39022 -0.13824,-0.13682 -0.51817,-0.24876 -0.84428,-0.24876 -0.32611,0 -0.65802,-0.10532 -0.73758,-0.23405 -0.0796,-0.12873 -0.66812,-0.31255 -1.30791,-0.4085 -0.63979,-0.0959 -1.80044,-0.40733 -2.57921,-0.69199 -0.77877,-0.28464 -1.6276,-0.51754 -1.88629,-0.51754 -0.25869,0 -0.67709,-0.11344 -0.92978,-0.25209 -0.56587,-0.31049 -3.179,-1.15967 -4.95734,-1.61097 -0.72761,-0.18464 -1.44198,-0.42135 -1.5875,-0.52601 -0.14552,-0.10465 -0.62177,-0.25756 -1.05834,-0.33978 -1.62442,-0.30595 -2.39538,-0.49176 -2.91041,-0.70144 -0.29105,-0.11849 -1.30308,-0.42033 -2.24896,-0.67075 -0.94589,-0.25043 -1.95792,-0.54706 -2.24896,-0.65918 -0.29104,-0.11212 -1.42214,-0.46914 -2.51354,-0.79338 -1.09141,-0.32425 -2.25787,-0.69561 -2.59214,-0.82526 -0.33427,-0.12965 -0.89279,-0.23572 -1.24116,-0.23572 -0.34836,0 -0.70697,-0.11907 -0.79691,-0.26459 -0.0899,-0.14552 -0.39624,-0.26458 -0.68066,-0.26458 -0.28443,0 -0.72389,-0.10746 -0.97658,-0.2388 -0.25268,-0.13133 -0.99521,-0.38303 -1.65005,-0.55932 -0.65485,-0.17629 -1.42875,-0.41745 -1.71979,-0.53591 -0.43352,-0.17646 -2.07644,-0.5431 -2.82223,-0.62983 -0.097,-0.0113 -0.26568,-0.10981 -0.37482,-0.21895 -0.10914,-0.10914 -0.47065,-0.19844 -0.80335,-0.19844 -0.57015,0 -0.94934,-0.12367 -2.87877,-0.93892 -0.43656,-0.18446 -1.62719,-0.53834 -2.64583,-0.78641 -1.01865,-0.24806 -1.9652,-0.55666 -2.10344,-0.68576 -0.13825,-0.12911 -0.5777,-0.23474 -0.97657,-0.23474 -0.39887,0 -0.79881,-0.11907 -0.88874,-0.26459 -0.0899,-0.14552 -0.44713,-0.26458 -0.79375,-0.26458 -0.34663,0 -0.70382,-0.11906 -0.79375,-0.26458 -0.0899,-0.14553 -0.51369,-0.26459 -0.94166,-0.26459 -0.42798,0 -0.77814,-0.11906 -0.77814,-0.26458 0,-0.14552 -0.27604,-0.26458 -0.61343,-0.26458 -0.68619,0 -3.06761,-0.66083 -4.28136,-1.18805 -0.43656,-0.18963 -2.0439,-0.66782 -3.57187,-1.06264 -3.19745,-0.8262 -4.38425,-1.16319 -5.23798,-1.48732 -0.33427,-0.12691 -0.84029,-0.23074 -1.12448,-0.23074 -0.28419,0 -0.51672,-0.11907 -0.51672,-0.26459 0,-0.14552 -0.35719,-0.26458 -0.79375,-0.26458 -0.43656,0 -0.79375,-0.11906 -0.79375,-0.26458 0,-0.14552 -0.27667,-0.26459 -0.61483,-0.26459 -0.33816,0 -1.61808,-0.30846 -2.84427,-0.68546 -4.22545,-1.29917 -7.93057,-2.22496 -8.91518,-2.22763 -0.54295,-0.001 -1.70155,0.23417 -2.57468,0.52364 -0.87312,0.28948 -2.48047,0.75909 -3.57187,1.04357 -3.74671,0.9766 -5.54022,1.50624 -5.72449,1.69051 -0.1015,0.1015 -0.46397,0.18454 -0.80549,0.18454 -0.34152,0 -0.8277,0.10746 -1.08038,0.2388 -0.25269,0.13133 -0.99521,0.39016 -1.65006,0.57517 -0.65484,0.185 -1.30373,0.43473 -1.44198,0.55495 -0.13824,0.12022 -0.48404,0.21858 -0.76844,0.21858 -0.53775,0 -4.93421,1.20811 -5.85937,1.6101 -1.06293,0.46186 -2.93792,1.01437 -4.03489,1.18897 -0.61847,0.0984 -1.12448,0.28282 -1.12448,0.40974 0,0.12693 -0.29928,0.23077 -0.66505,0.23077 -0.36578,0 -0.87179,0.10445 -1.12448,0.23211 -0.70456,0.35594 -2.29655,0.82623 -2.79691,0.82623 -0.24631,0 -0.65457,0.10745 -0.90726,0.23879 -0.25269,0.13134 -0.99521,0.37828 -1.65005,0.54876 -0.65485,0.17048 -2.81406,0.83693 -4.79826,1.48099 -1.98421,0.64407 -3.85944,1.17104 -4.16719,1.17104 -0.30776,0 -0.55955,0.0901 -0.55955,0.20016 0,0.22775 -1.87823,0.85817 -2.55674,0.85817 -0.42948,0 -1.74577,0.37138 -2.86722,0.80897 -0.29104,0.11357 -0.92563,0.27459 -1.41019,0.35783 -0.48456,0.0832 -1.25846,0.31499 -1.71979,0.515 -1.10808,0.48043 -3.89836,1.30322 -7.32106,2.15882 -1.52797,0.38195 -2.98487,0.80516 -3.23756,0.94046 -0.25269,0.1353 -0.75168,0.24601 -1.10886,0.24601 -0.35719,0 -0.71056,0.0989 -0.78527,0.21977 -0.0747,0.12088 -0.82587,0.36602 -1.66926,0.54476 -1.43333,0.30377 -2.37384,0.5831 -3.6501,1.08409 -0.29104,0.11425 -1.06494,0.35197 -1.71979,0.52825 -0.65484,0.1763 -1.39737,0.42799 -1.65005,0.55933 -0.25269,0.13134 -0.69215,0.2388 -0.97658,0.2388 -0.28442,0 -0.58383,0.1079 -0.66534,0.23979 -0.0815,0.13189 -0.74325,0.32164 -1.47053,0.42166 -0.72728,0.10003 -1.38901,0.28978 -1.47052,0.42166 -0.0815,0.13189 -0.41502,0.2398 -0.74113,0.2398 -0.32611,0 -0.70859,0.11566 -0.84994,0.25702 -0.14136,0.14135 -0.49259,0.29657 -0.78052,0.34493 -0.28793,0.0484 -1.11882,0.27528 -1.84643,0.50427 -0.7276,0.229 -1.8587,0.56163 -2.51354,0.73919 -0.65484,0.17756 -1.39737,0.43029 -1.65006,0.56163 -0.73232,0.38064 -2.95702,0.28076 -3.52489,-0.15826 -0.50401,-0.38964 -0.50194,-0.40692 0.11103,-0.92604 0.39649,-0.33578 1.00941,-0.52899 1.67816,-0.52899 0.57944,0 1.96523,-0.30412 3.07954,-0.67583 1.11431,-0.3717 2.44273,-0.79629 2.95205,-0.94353 0.94911,-0.27437 1.89562,-0.64388 2.70839,-1.05734 0.25269,-0.12854 0.75168,-0.23371 1.10887,-0.23371 0.35718,0 0.72301,-0.11907 0.81295,-0.26459 0.0899,-0.14552 0.39592,-0.26458 0.67996,-0.26458 0.28404,0 1.08068,-0.24999 1.77032,-0.55554 1.60675,-0.71187 1.86318,-0.80583 4.56118,-1.6714 1.23693,-0.39682 2.4557,-0.83201 2.70839,-0.96707 0.25269,-0.13507 0.70079,-0.24557 0.99578,-0.24557 0.29499,0 0.74309,-0.10518 0.99577,-0.23372 0.25269,-0.12854 0.78686,-0.36667 1.18704,-0.52917 0.40018,-0.16249 0.99549,-0.4084 1.32292,-0.54644 0.32742,-0.13805 1.42875,-0.52477 2.44739,-0.85939 1.01865,-0.33461 1.89177,-0.69791 1.94028,-0.80733 0.0485,-0.10943 0.22037,-0.19895 0.38192,-0.19895 0.5027,0 4.76372,-1.3452 5.94315,-1.87625 0.61688,-0.27775 1.3031,-0.505 1.52494,-0.505 0.22184,0 0.66962,-0.13766 0.99507,-0.3059 1.27068,-0.65687 1.52821,-0.75244 2.02773,-0.75244 0.28443,0 0.59072,-0.11906 0.68066,-0.26458 0.0899,-0.14552 0.50376,-0.26458 0.91961,-0.26458 0.41585,0 0.79577,-0.0941 0.84428,-0.20915 0.0485,-0.11504 0.68351,-0.40557 1.41111,-0.64564 2.80053,-0.924 7.69697,-2.62272 8.20208,-2.84555 0.29105,-0.12839 1.00542,-0.37687 1.5875,-0.55217 1.29028,-0.38859 1.75213,-0.56256 4.23334,-1.59466 0.29104,-0.12106 1.5412,-0.53367 2.77812,-0.91689 1.23693,-0.38323 2.48709,-0.79644 2.77813,-0.91823 0.29104,-0.1218 1.60073,-0.60108 2.91041,-1.06507 1.30969,-0.46398 2.64915,-0.94783 2.97657,-1.07521 1.48109,-0.5762 1.85052,-0.70689 2.84427,-1.00618 0.58208,-0.1753 1.29646,-0.41695 1.5875,-0.537 0.75379,-0.31093 3.32058,-1.06967 3.61864,-1.06967 0.23424,0 2.73135,-1.07286 3.69097,-1.5858 0.23675,-0.12655 0.86314,-0.31126 1.39199,-0.41047 0.52884,-0.0992 1.02678,-0.28595 1.10652,-0.41497 0.0797,-0.12903 0.37769,-0.23459 0.66212,-0.23459 0.28443,0 0.72389,-0.10518 0.97658,-0.23372 1.66962,-0.84934 2.16752,-0.95691 4.42926,-0.95691 1.33744,0 2.5987,0.12738 2.80281,0.28307 0.20411,0.15569 0.90689,0.43715 1.56173,0.62547 0.65485,0.18832 1.42875,0.43723 1.71979,0.55314 0.29104,0.1159 1.18401,0.40527 1.98438,0.64304 0.80036,0.23777 1.81239,0.59309 2.24896,0.78959 1.33566,0.60119 2.05676,0.87776 3.57187,1.36994 0.80037,0.26 1.56832,0.56776 1.70656,0.68392 0.13825,0.11616 0.51817,0.21121 0.84428,0.21121 0.32611,0 0.66652,0.11906 0.75645,0.26458 0.0899,0.14552 0.44713,0.26458 0.79375,0.26458 0.34663,0 0.70382,0.11907 0.79375,0.26459 0.0899,0.14552 0.51369,0.26458 0.94166,0.26458 0.42798,0 0.77814,0.0966 0.77814,0.21456 0,0.11801 0.59532,0.36714 1.32292,0.55362 0.72761,0.18648 1.32292,0.44711 1.32292,0.57919 0,0.13207 0.23974,0.24013 0.53276,0.24013 0.29301,0 0.73949,0.1072 0.99218,0.23821 0.25269,0.13102 1.17381,0.44546 2.04693,0.69875 1.95707,0.56775 3.0151,0.90471 3.70417,1.17971 0.29104,0.11614 0.94589,0.35427 1.45521,0.52916 0.50932,0.1749 1.19393,0.42504 1.52135,0.55587 1.28005,0.5115 1.82517,0.70554 2.84427,1.01246 0.58209,0.1753 1.29646,0.414 1.5875,0.53043 0.29104,0.11643 0.82683,0.33047 1.19063,0.47564 0.3638,0.14517 1.67349,0.58624 2.91041,0.98016 1.23693,0.39392 2.48709,0.81484 2.77813,0.93538 0.29104,0.12054 0.94589,0.36225 1.45521,0.53715 0.50932,0.17489 1.16416,0.41301 1.45521,0.52916 0.29104,0.11615 0.94588,0.35428 1.4552,0.52917 0.50933,0.17489 1.16417,0.41302 1.45521,0.52917 0.64644,0.25798 1.74972,0.6222 3.24115,1.06999 0.61846,0.18569 1.12448,0.42144 1.12448,0.52389 0,0.10245 0.55353,0.26214 1.23008,0.35487 0.67654,0.0927 1.37049,0.28514 1.54212,0.42758 0.17162,0.14243 0.56751,0.29796 0.87977,0.34561 0.31225,0.0477 0.65017,0.16908 0.75093,0.26985 0.10077,0.10076 0.46102,0.18321 0.80057,0.18321 0.33955,0 0.61736,0.11906 0.61736,0.26458 0,0.14552 0.18021,0.26458 0.40047,0.26458 0.22025,0 0.6072,0.10746 0.85989,0.2388 0.25269,0.13134 0.99521,0.39016 1.65006,0.57517 0.65484,0.18501 1.30373,0.43474 1.44198,0.55495 0.13824,0.12022 0.46728,0.21858 0.73119,0.21858 0.26391,0 0.68658,0.10517 0.93927,0.23372 0.44869,0.22824 1.51419,0.68503 2.5761,1.10439 0.29104,0.11493 1.24354,0.41533 2.11667,0.66755 0.87312,0.25222 1.70061,0.55897 1.83885,0.68167 0.13825,0.1227 0.46728,0.22309 0.7312,0.22309 0.26391,0 0.68658,0.10955 0.93927,0.24344 0.65667,0.34795 3.03681,1.18764 5.41904,1.91178 1.12706,0.3426 2.04979,0.7122 2.05052,0.82134 7.9e-4,0.10914 0.29195,0.19844 0.64717,0.19844 0.35521,0 0.71943,0.11906 0.80936,0.26458 0.0899,0.14552 0.36486,0.26595 0.61093,0.26761 0.56765,0.004 6.93711,2.05772 7.31149,2.35766 0.15382,0.12322 0.69248,0.31246 1.19702,0.42053 1.36441,0.29224 1.86077,0.69657 1.86077,1.51576 0,0.82634 -0.48705,0.92182 -1.5875,0.31119 z"
       id="path874" /></g></svg>
