<?xml version="1.0" encoding="UTF-8" standalone="no"?>
<!-- Uploaded to: SVG Repo, www.svgrepo.com, Generator: SVG Repo Mixer Tools -->

<svg
   fill="#000000"
   width="550"
   height="550"
   viewBox="0 0 22 22"
   version="1.1"
   id="svg4"
   sodipodi:docname="dribbble-light.svg"
   inkscape:version="1.2.2 (732a01da63, 2022-12-09)"
   xmlns:inkscape="http://www.inkscape.org/namespaces/inkscape"
   xmlns:sodipodi="http://sodipodi.sourceforge.net/DTD/sodipodi-0.dtd"
   xmlns="http://www.w3.org/2000/svg"
   xmlns:svg="http://www.w3.org/2000/svg">
  <defs
     id="defs8" />
  <sodipodi:namedview
     id="namedview6"
     pagecolor="#505050"
     bordercolor="#eeeeee"
     borderopacity="1"
     inkscape:showpageshadow="0"
     inkscape:pageopacity="0"
     inkscape:pagecheckerboard="0"
     inkscape:deskcolor="#505050"
     showgrid="false"
     inkscape:zoom="0.97"
     inkscape:cx="152.06186"
     inkscape:cy="275.25773"
     inkscape:window-width="1920"
     inkscape:window-height="974"
     inkscape:window-x="-11"
     inkscape:window-y="-11"
     inkscape:window-maximized="1"
     inkscape:current-layer="svg4" />
  <path
     d="M 11,22 C 4.935,22 0,17.067 0,11 0,4.935 4.935,0 11,0 17.066,0 22,4.935 22,11 22,17.067 17.066,22 11,22 Z M 5.638,18.164 A 8.859,8.859 0 0 0 11,19.953 c 1.075,0 2.13,-0.191 3.138,-0.568 A 42.956,42.956 0 0 0 12.346,12.71 c -3.929,1.275 -5.954,4.137 -6.708,5.454 z m 8.718,-5.93 a 45.7,45.7 0 0 1 1.673,6.167 8.924,8.924 0 0 0 3.814,-6.022 18.372,18.372 0 0 0 -3.283,-0.311 14.353,14.353 0 0 0 -2.204,0.166 z M 2.045,11 c 0,2.098 0.741,4.128 2.088,5.739 1.096,-1.711 3.428,-4.538 7.475,-5.916 -0.186,-0.433 -0.38,-0.864 -0.582,-1.287 -3.483,1.003 -7.049,1.252 -8.979,1.308 z m 14.58,-0.973 c 1.061,0 2.17,0.095 3.304,0.286 A 8.858,8.858 0 0 0 18.103,5.558 c -1.179,1.345 -2.895,2.46 -5.106,3.319 0.209,0.451 0.419,0.928 0.623,1.421 0.96,-0.181 1.97,-0.271 3.005,-0.271 z M 6.756,3.121 A 8.952,8.952 0 0 0 2.327,8.781 C 4.042,8.708 7.101,8.467 10.064,7.678 8.713,5.278 7.449,3.824 6.756,3.121 Z M 8.818,2.317 c 0.848,0.948 2.041,2.487 3.256,4.724 2.058,-0.767 3.602,-1.763 4.598,-2.961 A 8.946,8.946 0 0 0 11,2.046 c -0.734,0 -1.466,0.091 -2.182,0.271 z"
     id="path2"
     style="fill:#ffffff" />
</svg>
