<?xml version="1.0" encoding="UTF-8" standalone="no"?>
<!-- Uploaded to: SVG Repo, www.svgrepo.com, Generator: SVG Repo Mixer Tools -->

<svg
   width="667.50806"
   height="650.51868"
   viewBox="0 0 20.025242 19.51556"
   version="1.1"
   id="svg8"
   sodipodi:docname="github-light.svg"
   inkscape:version="1.2.2 (732a01da63, 2022-12-09)"
   xmlns:inkscape="http://www.inkscape.org/namespaces/inkscape"
   xmlns:sodipodi="http://sodipodi.sourceforge.net/DTD/sodipodi-0.dtd"
   xmlns="http://www.w3.org/2000/svg"
   xmlns:svg="http://www.w3.org/2000/svg">
  <defs
     id="defs12" />
  <sodipodi:namedview
     id="namedview10"
     pagecolor="#505050"
     bordercolor="#eeeeee"
     borderopacity="1"
     inkscape:showpageshadow="0"
     inkscape:pageopacity="0"
     inkscape:pagecheckerboard="0"
     inkscape:deskcolor="#505050"
     showgrid="false"
     inkscape:zoom="0.97"
     inkscape:cx="210.82474"
     inkscape:cy="332.98969"
     inkscape:window-width="1920"
     inkscape:window-height="974"
     inkscape:window-x="-11"
     inkscape:window-y="-11"
     inkscape:window-maximized="1"
     inkscape:current-layer="svg8" />
  <title
     id="title2">github</title>
  <rect
     width="24"
     height="24"
     fill="none"
     id="rect4"
     x="-1.9622825"
     y="-1.9999288" />
  <path
     d="M 10.037717,7.1130437e-5 A 10,10 0 0 0 6.8777174,19.500071 c 0.5,0.08 0.66,-0.23 0.66,-0.5 v -1.69 c -2.77,0.6 -3.36,-1.31 -3.36,-1.31 a 2.69,2.69 0 0 0 -1.14,-1.5 c -0.91,-0.62 0.07,-0.6 0.07,-0.6 a 2.1,2.1 0 0 1 1.53,1 2.15,2.15 0 0 0 2.91,0.83 2.16,2.16 0 0 1 0.63,-1.34 c -2.14,-0.22 -4.52,-1.08 -4.52,-4.8899999 a 3.87,3.87 0 0 1 1,-2.71 3.58,3.58 0 0 1 0.1,-2.64 c 0,0 0.84,-0.27 2.75,1 a 9.63,9.63 0 0 1 4.9999996,0 c 1.91,-1.29 2.75,-1 2.75,-1 a 3.58,3.58 0 0 1 0.1,2.64 3.87,3.87 0 0 1 1,2.71 c 0,3.8199999 -2.34,4.6599999 -4.57,4.9099999 a 2.39,2.39 0 0 1 0.69,1.85 v 2.74 c 0,0.27 0.16,0.59 0.67,0.5 a 10,10 0 0 0 -3.11,-19.499999869563 z"
     id="path6"
     style="fill:#ffffff" />
</svg>
