<?xml version="1.0" encoding="UTF-8" standalone="no"?>
<svg
   class="ionicon"
   viewBox="0 0 448.0007 448"
   version="1.1"
   id="svg11149"
   sodipodi:docname="linkedin-light.svg"
   width="448.0007"
   height="448"
   inkscape:version="1.2.2 (732a01da63, 2022-12-09)"
   xmlns:inkscape="http://www.inkscape.org/namespaces/inkscape"
   xmlns:sodipodi="http://sodipodi.sourceforge.net/DTD/sodipodi-0.dtd"
   xmlns="http://www.w3.org/2000/svg"
   xmlns:svg="http://www.w3.org/2000/svg">
  <defs
     id="defs11153" />
  <sodipodi:namedview
     id="namedview11151"
     pagecolor="#505050"
     bordercolor="#eeeeee"
     borderopacity="1"
     inkscape:showpageshadow="0"
     inkscape:pageopacity="0"
     inkscape:pagecheckerboard="0"
     inkscape:deskcolor="#505050"
     showgrid="false"
     inkscape:zoom="1.5703125"
     inkscape:cx="141.69154"
     inkscape:cy="224.1592"
     inkscape:window-width="1920"
     inkscape:window-height="974"
     inkscape:window-x="-11"
     inkscape:window-y="-11"
     inkscape:window-maximized="1"
     inkscape:current-layer="svg11149" />
  <title
     id="title11145">Logo Linkedin</title>
  <path
     d="M 412.17,0 H 38.28 C 17.85,0 0,14.7 0,34.89 V 409.61 C 0,429.91 17.85,448 38.28,448 H 412.06 C 432.6,448 448,429.79 448,409.61 V 34.89 C 448.12,14.7 432.6,0 412.17,0 Z M 138.87,373.43 H 74.69 V 173.88 h 64.18 z M 109,143.54 h -0.46 C 88,143.54 74.7,128.25 74.7,109.11 c 0,-19.49 13.65,-34.42 34.65,-34.42 21,0 33.85,14.82 34.31,34.42 -0.01,19.14 -13.31,34.43 -34.66,34.43 z M 373.43,373.43 H 309.25 V 264.32 c 0,-26.14 -9.34,-44 -32.56,-44 -17.74,0 -28.24,12 -32.91,23.69 -1.75,4.2 -2.22,9.92 -2.22,15.76 V 373.43 H 177.38 V 173.88 h 64.18 v 27.77 c 9.34,-13.3 23.93,-32.44 57.88,-32.44 42.13,0 74,27.77 74,87.64 z"
     id="path11147"
     style="fill:#ffffff" />
</svg>
