<?xml version="1.0" encoding="UTF-8" standalone="no"?>
<!-- Created with Inkscape (http://www.inkscape.org/) -->

<svg
   width="587.13007"
   height="587.13007"
   viewBox="0 0 155.34483 155.34483"
   version="1.1"
   id="svg5"
   xml:space="preserve"
   sodipodi:docname="logo - introduction.svg"
   inkscape:version="1.2.2 (732a01da63, 2022-12-09)"
   xmlns:inkscape="http://www.inkscape.org/namespaces/inkscape"
   xmlns:sodipodi="http://sodipodi.sourceforge.net/DTD/sodipodi-0.dtd"
   xmlns="http://www.w3.org/2000/svg"
   xmlns:svg="http://www.w3.org/2000/svg"><sodipodi:namedview
     id="namedview12130"
     pagecolor="#505050"
     bordercolor="#eeeeee"
     borderopacity="1"
     inkscape:showpageshadow="0"
     inkscape:pageopacity="0"
     inkscape:pagecheckerboard="0"
     inkscape:deskcolor="#505050"
     showgrid="false"
     inkscape:zoom="1.0916668"
     inkscape:cx="365.95416"
     inkscape:cy="361.37401"
     inkscape:window-width="1920"
     inkscape:window-height="991"
     inkscape:window-x="-9"
     inkscape:window-y="-9"
     inkscape:window-maximized="1"
     inkscape:current-layer="svg5" /><defs
     id="defs2"><filter
       inkscape:collect="always"
       style="color-interpolation-filters:sRGB"
       id="filter12668"
       x="-0.048000001"
       y="-0.048000001"
       width="1.096"
       height="1.096"><feGaussianBlur
         inkscape:collect="always"
         stdDeviation="2.6458334"
         id="feGaussianBlur12670" /></filter></defs><rect
     style="opacity:1;fill:#ffffff;stroke-width:1.00013"
     id="rect12724"
     width="271.46423"
     height="234.10361"
     x="-432.34482"
     y="-197.06261"
     ry="1.984375" /><g
     id="g12728"
     transform="translate(11.526587,16.818283)"><circle
       style="opacity:0.200483;fill:#000000;stroke-width:1.88567;filter:url(#filter12668)"
       id="circle12666"
       cx="-81.011772"
       cy="46.77216"
       r="66.145836"
       transform="rotate(-15,66.145842,-502.42748)" /><circle
       style="fill:#ffffff;stroke-width:1.88567"
       id="path12664"
       cx="48.141754"
       cy="75.900375"
       r="66.145836"
       transform="rotate(-15)" /></g><g
     id="g12734"
     transform="matrix(0.87479869,0,0,0.87479869,19.808133,19.808131)"><circle
       style="opacity:0.200483;fill:#000000;stroke-width:1.88567;filter:url(#filter12668)"
       id="circle12730"
       cx="-81.011772"
       cy="46.77216"
       r="66.145836"
       transform="rotate(-15,66.145842,-502.42748)" /><circle
       style="fill:#ffffff;stroke-width:1.88567"
       id="circle12732"
       cx="48.141754"
       cy="75.900375"
       r="66.145836"
       transform="rotate(-15)" /></g><g
     id="layer1"
     transform="translate(130.17621,673.22695)"><path
       id="path396-4-4"
       style="font-size:183.738px;font-family:Orbitron;-inkscape-font-specification:Orbitron;stroke-width:0.391727"
       d="m -50.442925,-599.54326 c -0.4875,0 -0.93808,0.0591 -1.35173,0.17725 -0.39887,0.11818 -0.71649,0.2807 -0.95286,0.48752 -0.23636,0.19943 -0.35455,0.42102 -0.35455,0.66477 v 6.64781 h 1.79491 v -2.91396 -0.89745 -2.8364 c 0,-0.11818 0.0812,-0.2179 0.24374,-0.29915 0.17728,-0.0886 0.38413,-0.13293 0.62049,-0.13293 h 10.6365 c 0.23637,0 0.4358,0.0443 0.5983,0.13293 0.17728,0.0812 0.26588,0.18097 0.26588,0.29915 v 2.8364 0.89745 2.91396 h 1.79494 v -6.64781 c 0,-0.24375 -0.11816,-0.46534 -0.35453,-0.66477 -0.23636,-0.20682 -0.56141,-0.36934 -0.97505,-0.48752 -0.39887,-0.11819 -0.84203,-0.17725 -1.32954,-0.17725 z m 16.88544,0 v 7.97735 h 2.04885 v -6.95805 l 8.32174,4.33215 8.32178,-4.33215 v 6.95805 h 2.04882 v -7.97735 h -2.80764 l -7.56296,3.94435 -7.56293,-3.94435 z m -39.0892,3e-5 v 0.89746 h 5.82792 1.79494 5.67279 c 0.23637,0 0.4358,0.0406 0.5983,0.12187 0.17728,0.0886 0.26587,0.19206 0.26587,0.31024 v 5.31824 c 0,0.11818 -0.0886,0.2179 -0.26587,0.29915 -0.1625,0.0886 -0.36193,0.13294 -0.5983,0.13294 h -5.67279 -1.79494 -5.82792 v 0.89745 h 13.29565 c 0.4875,0 0.93067,-0.0591 1.32954,-0.17725 0.41364,-0.11818 0.73868,-0.2807 0.97505,-0.48752 0.23637,-0.19943 0.35452,-0.42102 0.35452,-0.66477 v -5.31824 c 0,-0.24375 -0.11815,-0.46904 -0.35452,-0.67586 -0.23637,-0.19943 -0.56141,-0.35825 -0.97505,-0.47643 -0.39887,-0.11818 -0.84204,-0.17728 -1.32954,-0.17728 z m -16.88546,6e-5 c -0.48751,0 -0.93809,0.0591 -1.35173,0.17725 -0.39887,0.11819 -0.7165,0.2807 -0.95286,0.48753 -0.23637,0.19943 -0.35456,0.42102 -0.35456,0.66477 v 6.6478 h 1.79491 v -2.91395 -0.89746 -2.83639 c 0,-0.11819 0.0812,-0.21791 0.24375,-0.29916 0.17727,-0.0886 0.38412,-0.13297 0.62049,-0.13297 h 10.63653 c 0.23636,0 0.4358,0.0443 0.5983,0.13297 0.17727,0.0812 0.26587,0.18097 0.26587,0.29916 v 2.83639 0.89746 2.91395 h 1.79491 v -6.6478 c 0,-0.24375 -0.11813,-0.46534 -0.35449,-0.66477 -0.23637,-0.20683 -0.56141,-0.36934 -0.97505,-0.48753 -0.39887,-0.11818 -0.84204,-0.17725 -1.32954,-0.17725 z" /></g></svg>
