<?xml version="1.0" encoding="UTF-8" standalone="no"?>
<!-- Uploaded to: SVG Repo, www.svgrepo.com, Generator: SVG Repo Mixer Tools -->

<svg
   width="400"
   height="666.66669"
   viewBox="0 0 12 20.000001"
   fill="none"
   version="1.1"
   id="svg4"
   sodipodi:docname="phone.svg"
   inkscape:version="1.2.2 (732a01da63, 2022-12-09)"
   xmlns:inkscape="http://www.inkscape.org/namespaces/inkscape"
   xmlns:sodipodi="http://sodipodi.sourceforge.net/DTD/sodipodi-0.dtd"
   xmlns="http://www.w3.org/2000/svg"
   xmlns:svg="http://www.w3.org/2000/svg">
  <defs
     id="defs8" />
  <sodipodi:namedview
     id="namedview6"
     pagecolor="#505050"
     bordercolor="#eeeeee"
     borderopacity="1"
     inkscape:showpageshadow="0"
     inkscape:pageopacity="0"
     inkscape:pagecheckerboard="0"
     inkscape:deskcolor="#505050"
     showgrid="false"
     inkscape:zoom="0.97"
     inkscape:cx="137.62887"
     inkscape:cy="332.98969"
     inkscape:window-width="1920"
     inkscape:window-height="974"
     inkscape:window-x="-11"
     inkscape:window-y="-11"
     inkscape:window-maximized="1"
     inkscape:current-layer="svg4" />
  <path
     fill-rule="evenodd"
     clip-rule="evenodd"
     d="M 8.795,0 H 3.205 C 2.09,0 1.686,0.116 1.279,0.334 A 2.272,2.272 0 0 0 0.334,1.279 C 0.116,1.686 0,2.09 0,3.205 v 13.59 c 0,1.114 0.116,1.519 0.334,1.926 0.218,0.407 0.538,0.727 0.945,0.945 C 1.686,19.884 2.09,20 3.205,20 h 5.59 c 1.114,0 1.519,-0.116 1.926,-0.334 0.407,-0.218 0.727,-0.538 0.945,-0.945 C 11.884,18.314 12,17.91 12,16.795 V 3.205 C 12,2.09 11.884,1.686 11.666,1.279 A 2.272,2.272 0 0 0 10.721,0.334 C 10.314,0.116 9.91,0 8.795,0 Z M 2,15.995 V 4.005 h 8 v 11.99 z"
     fill="#000000"
     id="path2" />
</svg>
