<?xml version="1.0" encoding="UTF-8" standalone="no"?>
<!-- Uploaded to: SVG Repo, www.svgrepo.com, Generator: SVG Repo Mixer Tools -->

<svg
   width="533.33331"
   height="533.33386"
   viewBox="0 0 15.999999 16.000016"
   fill="none"
   version="1.1"
   id="svg4"
   sodipodi:docname="telegram-light.svg"
   inkscape:version="1.2.2 (732a01da63, 2022-12-09)"
   xmlns:inkscape="http://www.inkscape.org/namespaces/inkscape"
   xmlns:sodipodi="http://sodipodi.sourceforge.net/DTD/sodipodi-0.dtd"
   xmlns="http://www.w3.org/2000/svg"
   xmlns:svg="http://www.w3.org/2000/svg">
  <defs
     id="defs8" />
  <sodipodi:namedview
     id="namedview6"
     pagecolor="#505050"
     bordercolor="#eeeeee"
     borderopacity="1"
     inkscape:showpageshadow="0"
     inkscape:pageopacity="0"
     inkscape:pagecheckerboard="0"
     inkscape:deskcolor="#505050"
     showgrid="false"
     inkscape:zoom="0.97"
     inkscape:cx="142.78351"
     inkscape:cy="267.01031"
     inkscape:window-width="1920"
     inkscape:window-height="974"
     inkscape:window-x="-11"
     inkscape:window-y="-11"
     inkscape:window-maximized="1"
     inkscape:current-layer="svg4" />
  <path
     d="m 7.9999993,0 c -1.5822,0 -3.12897,0.46919 -4.44456,1.34824 -1.31559,0.87905 -2.34097,2.12848 -2.94647,3.59029 -0.6055,1.46177 -0.76393,3.07037 -0.45525,4.62217 0.30868,1.5519 1.07061,2.9773 2.18943,4.0962 1.11882,1.1188 2.54428,1.8807 4.09615,2.1894 1.5518,0.3087 3.1604,0.1502 4.6221997,-0.4553 1.4618,-0.6055 2.7112,-1.6308 3.5903,-2.9464 0.879,-1.3156 1.3482,-2.8623 1.3482,-4.4446 0,-2.12173 -0.8429,-4.15656 -2.3431,-5.65685 C 12.156599,0.84285 10.121699,0 7.9999993,0 Z m 3.9299997,5.48 -1.31,6.19 c -0.1,0.44 -0.36,0.54 -0.7299997,0.34 l -2,-1.48 -1,0.93 c -0.0471,0.0615 -0.1076,0.1115 -0.1769,0.1462 -0.0693,0.0346 -0.1456,0.053 -0.2231,0.0538 l 0.14,-2 3.6999997,-3.35 c 0.17,-0.14 0,-0.22 -0.24,-0.08 l -4.5399997,2.85 -2,-0.62 c -0.43,-0.13 -0.44,-0.43 0.09,-0.63 l 7.7099997,-3 c 0.38,-0.11 0.7,0.11 0.58,0.65 z"
     fill="#000000"
     id="path2"
     style="fill:#ffffff" />
</svg>
