<?xml version="1.0" encoding="UTF-8" standalone="no"?>
<svg
   class="ionicon"
   viewBox="0 0 448.0007 448.00104"
   version="1.1"
   id="svg10654"
   sodipodi:docname="whatsapp.svg"
   width="448.0007"
   height="448.00104"
   inkscape:version="1.2.2 (732a01da63, 2022-12-09)"
   xmlns:inkscape="http://www.inkscape.org/namespaces/inkscape"
   xmlns:sodipodi="http://sodipodi.sourceforge.net/DTD/sodipodi-0.dtd"
   xmlns="http://www.w3.org/2000/svg"
   xmlns:svg="http://www.w3.org/2000/svg">
  <defs
     id="defs10658" />
  <sodipodi:namedview
     id="namedview10656"
     pagecolor="#505050"
     bordercolor="#eeeeee"
     borderopacity="1"
     inkscape:showpageshadow="0"
     inkscape:pageopacity="0"
     inkscape:pagecheckerboard="0"
     inkscape:deskcolor="#505050"
     showgrid="false"
     inkscape:zoom="1.1103786"
     inkscape:cx="180.56904"
     inkscape:cy="227.39991"
     inkscape:window-width="1920"
     inkscape:window-height="991"
     inkscape:window-x="-9"
     inkscape:window-y="-9"
     inkscape:window-maximized="1"
     inkscape:current-layer="svg10654" />
  <title
     id="title10650">Logo Whatsapp</title>
  <path
     d="M 382.73,65.101027 A 222.14,222.14 0 0 0 224.94,0.0010273 C 102,0.0010273 1.92,99.581027 1.87,222.00103 a 220.61,220.61 0 0 0 29.78,111 l -31.65,115 118.25,-30.87 a 223.63,223.63 0 0 0 106.6,27 h 0.09 c 122.93,0 223,-99.59 223.06,-222 A 220.18,220.18 0 0 0 382.73,65.101027 Z M 224.94,406.66103 h -0.08 a 185.75,185.75 0 0 1 -94.36,-25.72 l -6.77,-4 -70.17,18.32 18.73,-68.09 -4.41,-7 a 183.46,183.46 0 0 1 -28.35,-98.17 c 0,-101.73 83.21,-184.500003 185.48,-184.500003 A 185,185 0 0 1 410.34,222.14103 c -0.04,101.74 -83.21,184.52 -185.4,184.52 z m 101.69,-138.19 c -5.57,-2.78 -33,-16.2 -38.08,-18.05 -5.08,-1.85 -8.83,-2.78 -12.54,2.78 -3.71,5.56 -14.4,18 -17.65,21.75 -3.25,3.75 -6.5,4.16 -12.07,1.38 -5.57,-2.78 -23.54,-8.63 -44.83,-27.53 -16.57,-14.71 -27.75,-32.87 -31,-38.42 -3.25,-5.55 -0.35,-8.56 2.44,-11.32 2.51,-2.49 5.57,-6.48 8.36,-9.72 2.79,-3.24 3.72,-5.56 5.57,-9.26 1.85,-3.7 0.93,-6.94 -0.46,-9.71 -1.39,-2.77 -12.54,-30.08 -17.18,-41.19 -4.53,-10.82 -9.12,-9.35 -12.54,-9.52 -3.25,-0.16 -7,-0.2 -10.69,-0.2 a 20.53,20.53 0 0 0 -14.86,6.94 c -5.11,5.56 -19.51,19 -19.51,46.28 0,27.28 20,53.68 22.76,57.38 2.76,3.7 39.3,59.73 95.21,83.76 a 323.11,323.11 0 0 0 31.78,11.68 c 13.35,4.22 25.5,3.63 35.1,2.2 10.71,-1.59 33,-13.42 37.63,-26.38 4.63,-12.96 4.64,-24.06 3.25,-26.37 -1.39,-2.31 -5.11,-3.71 -10.69,-6.48 z"
     fill-rule="evenodd"
     id="path10652" />
</svg>
